#!OML:ASF H:\Martial Arts Walks\Project 1\Capture day 1\Session 1\male.ASF
:FULLY-SPECIFIED
:DEGREES
2148
root -4.31862 14.2888 -13.2378 2.59405 -23.6191 -8.62768
lowerback 16.4384 3.91047 1.12102
upperback 0.644325 5.5447 1.96278
thorax -8.60968 2.6552 0.172319
lowerneck -1.03823 0.950382 -2.21063
upperneck 5.33799 1.17088 3.16988
head 1.81416 0.605995 1.39661
rclavicle 4.81059e-014 9.93923e-015
rhumerus -33.6265 19.238 -82.9859
rradius 61.8676
rwrist 12.6206
rhand -4.71188 -44.8021
rfingers 7.12502
rthumb 21.0702 -73.6774
lclavicle 4.81059e-014 9.93923e-015
lhumerus -28.9294 1.71521 80.2945
lradius 33.8776
lwrist 5.00672
lhand -32.7441 29.9534
lfingers 7.12502
lthumb -5.9672 59.8494
rfemur -17.5972 11.7004 20.9697
rtibia 78.7409
rfoot -27.6464 -13.8513
rtoes -34.9059
lfemur -54.8011 -1.04292 1.47859
ltibia 48.6144
lfoot 15.4341 10.8574
ltoes 5.59896
2149
root -4.35467 14.3126 -13.4329 2.51773 -22.7214 -8.79274
lowerback 16.4562 3.86212 1.41386
upperback 0.819736 5.53605 2.05678
thorax -8.41031 2.64411 0.11729
lowerneck -1.01664 0.734543 -2.42121
upperneck 5.14121 0.89026 3.21706
head 1.75524 0.462764 1.44129
rclavicle -6.48038e-014 -2.10712e-014
rhumerus -32.7714 19.4004 -82.7666
rradius 62.14
rwrist 12.3944
rhand -4.82894 -45.0548
rfingers 7.12502
rthumb 20.9578 -73.9426
lclavicle -6.48038e-014 -2.10712e-014
lhumerus -29.5533 1.52449 80.5594
lradius 34.8695
lwrist 5.77042
lhand -31.858 30.3313
lfingers 7.12502
lthumb -5.11162 60.2497
rfemur -17.8365 11.7504 22.0019
rtibia 78.6059
rfoot -27.435 -14.7295
rtoes -34.9276
lfemur -54.1991 -3.16226 2.84453
ltibia 45.9866
lfoot 15.6883 10.1007
ltoes 1.37114
2150
root -4.39009 14.3386 -13.6329 2.45305 -21.6959 -8.87461
lowerback 16.5166 3.80073 1.67843
upperback 0.991544 5.50206 2.10987
thorax -8.23745 2.62114 0.037075
lowerneck -1.04904 0.509791 -2.63518
upperneck 4.87532 0.596806 3.34119
head 1.68521 0.315122 1.51129
rclavicle -5.86415e-014 -2.10712e-014
rhumerus -31.8267 19.4397 -82.5016
rradius 62.3479
rwrist 12.2204
rhand -4.93233 -45.3517
rfingers 7.12502
rthumb 20.8584 -74.2504
lclavicle -5.86415e-014 -2.10712e-014
lhumerus -30.1371 1.25474 80.819
lradius 35.9381
lwrist 6.51097
lhand -30.7215 30.7869
lfingers 7.12502
lthumb -4.0142 60.7288
rfemur -18.1032 11.3438 22.9152
rtibia 78.4141
rfoot -26.9984 -16.2531
rtoes -35.1721
lfemur -53.8215 -5.32003 4.0436
ltibia 43.335
lfoot 14.9355 7.59299
ltoes -4.5913
2151
root -4.42558 14.3671 -13.8423 2.46495 -20.5785 -8.96752
lowerback 16.6492 3.70601 1.9475
upperback 1.08777 5.43109 2.16795
thorax -8.18755 2.57843 -0.0396519
lowerneck -1.02242 0.285398 -2.89605
upperneck 4.6155 0.302554 3.49621
head 1.60836 0.166437 1.59963
rclavicle 2.7482e-014 3.57812e-015
rhumerus -30.9725 19.5175 -82.2426
rradius 62.5802
rwrist 12.0033
rhand -5.13466 -45.0651
rfingers 7.12502
rthumb 20.664 -73.985
lclavicle 2.7482e-014 3.57812e-015
lhumerus -30.8126 0.976924 81.0585
lradius 37.0124
lwrist 7.18466
lhand -29.6777 30.8041
lfingers 7.12502
lthumb -3.00625 60.7626
rfemur -18.5094 10.6024 23.8044
rtibia 78.18
rfoot -26.5184 -17.808
rtoes -35.2245
lfemur -53.7246 -7.26539 4.98135
ltibia 40.8703
lfoot 12.5199 4.03926
ltoes -6.46737
2152
root -4.45949 14.3986 -14.0612 2.5426 -19.3333 -9.02217
lowerback 16.8604 3.57236 2.19594
upperback 1.14504 5.30846 2.20735
thorax -8.22452 2.50951 -0.119337
lowerneck -1.03105 0.0278095 -3.02817
upperneck 4.32699 -0.0325567 3.528
head 1.53012 -0.00232515 1.6254
rclavicle -4.81059e-014 -1.59028e-015
rhumerus -30.0454 19.5985 -81.9498
rradius 62.7437
rwrist 11.8098
rhand -5.22633 -45.3198
rfingers 7.12502
rthumb 20.5759 -74.2494
lclavicle -4.81059e-014 -1.59028e-015
lhumerus -31.4199 0.810589 81.2425
lradius 37.9604
lwrist 7.68684
lhand -28.4668 30.8651
lfingers 7.12502
lthumb -1.83673 60.8369
rfemur -19.0532 9.60595 24.607
rtibia 77.9229
rfoot -26.0299 -19.4266
rtoes -35.352
lfemur -53.9888 -9.1453 5.73386
ltibia 38.6772
lfoot 9.27504 0.963902
ltoes -6.80877
2153
root -4.49327 14.4337 -14.2897 2.64614 -17.9874 -8.9455
lowerback 17.1606 3.42242 2.29813
upperback 1.13006 5.14329 2.22946
thorax -8.40215 2.42225 -0.133498
lowerneck -0.982914 -0.252028 -3.13188
upperneck 4.04536 -0.39815 3.51855
head 1.4455 -0.18695 1.6326
rclavicle 4.30866e-014 1.55052e-014
rhumerus -29.2115 19.6572 -81.6593
rradius 62.9285
rwrist 11.6317
rhand -5.29114 -45.397
rfingers 7.12502
rthumb 20.5137 -74.3332
lclavicle 4.30866e-014 1.55052e-014
lhumerus -32.0398 0.713242 81.4057
lradius 38.7831
lwrist 8.11219
lhand -27.2466 30.4307
lfingers 7.12502
lthumb -0.658222 60.4095
rfemur -19.8002 8.42479 25.2165
rtibia 77.7044
rfoot -25.602 -20.874
rtoes -34.9468
lfemur -54.5363 -10.9188 6.20935
ltibia 36.8701
lfoot 5.86017 -1.35053
ltoes -5.11757
2154
root -4.5287 14.4566 -14.5226 2.7705 -16.5958 -8.77078
lowerback 17.4592 3.27935 2.32102
upperback 1.12657 4.96947 2.22239
thorax -8.57087 2.3336 -0.130561
lowerneck -1.08055 -0.509378 -3.35164
upperneck 3.848 -0.735276 3.67639
head 1.41548 -0.354934 1.71651
rclavicle -2.62893e-014 3.97569e-016
rhumerus -28.2384 19.6469 -81.3039
rradius 62.9783
rwrist 11.5148
rhand -5.44932 -45.1572
rfingers 7.12502
rthumb 20.3617 -74.1097
lclavicle -2.62893e-014 3.97569e-016
lhumerus -32.5429 0.719079 81.5345
lradius 39.4821
lwrist 8.40744
lhand -25.8924 30.3394
lfingers 7.12502
lthumb 0.649637 60.3182
rfemur -20.6977 7.30835 25.6943
rtibia 77.5991
rfoot -25.3441 -22.1726
rtoes -34.5352
lfemur -55.2499 -12.3303 6.25311
ltibia 35.5411
lfoot 3.21224 -2.96301
ltoes -4.2124
2155
root -4.56434 14.4735 -14.7609 2.8656 -15.139 -8.49523
lowerback 17.8226 3.13492 2.26549
upperback 1.1624 4.77701 2.19528
thorax -8.73745 2.23873 -0.101597
lowerneck -1.29971 -0.821684 -3.47711
upperneck 3.62941 -1.13922 3.7149
head 1.40155 -0.55561 1.74394
rclavicle -2.13197e-014 -1.68967e-014
rhumerus -27.2539 19.6198 -80.8716
rradius 63.0955
rwrist 11.3978
rhand -5.7749 -44.8268
rfingers 7.12502
rthumb 20.0487 -73.8124
lclavicle -2.13197e-014 -1.68967e-014
lhumerus -32.8818 0.674589 81.6754
lradius 40.03
lwrist 8.61345
lhand -24.6403 30.1606
lfingers 7.12502
lthumb 1.85894 60.1322
rfemur -21.7233 6.19095 26.0383
rtibia 77.605
rfoot -25.083 -23.404
rtoes -34.2841
lfemur -55.9718 -13.2262 5.58284
ltibia 34.786
lfoot 1.89458 -3.27826
ltoes -3.65861
2156
root -4.59991 14.4823 -15.0051 3.02991 -13.6276 -8.19613
lowerback 18.1979 2.99753 2.19273
upperback 1.19033 4.5918 2.17844
thorax -8.92103 2.14824 -0.0526266
lowerneck -1.57765 -1.16068 -3.67695
upperneck 3.38582 -1.57677 3.8363
head 1.39428 -0.772071 1.81031
rclavicle -3.61788e-014 -1.15295e-014
rhumerus -26.2394 19.5491 -80.3495
rradius 63.2415
rwrist 11.412
rhand -5.62158 -45.1938
rfingers 7.12502
rthumb 20.1961 -74.1639
lclavicle -3.61788e-014 -1.15295e-014
lhumerus -32.9903 0.70354 81.8108
lradius 40.3077
lwrist 8.7926
lhand -23.1168 30.1109
lfingers 7.12502
lthumb 3.33031 60.0646
rfemur -22.9071 5.14848 26.3101
rtibia 77.7024
rfoot -24.8561 -24.5693
rtoes -33.8604
lfemur -56.7412 -13.349 4.00199
ltibia 34.7699
lfoot 1.16349 -2.48989
ltoes -4.18449
2157
root -4.63422 14.4865 -15.2549 3.20186 -12.1045 -7.82389
lowerback 18.5931 2.85616 2.07505
upperback 1.23417 4.39136 2.16043
thorax -9.10096 2.05271 0.0257635
lowerneck -1.84741 -1.5039 -3.88439
upperneck 3.0806 -2.01523 3.89407
head 1.36651 -0.989951 1.85641
rclavicle 5.01931e-014 -1.96797e-014
rhumerus -25.2097 19.5167 -79.7615
rradius 63.383
rwrist 11.2332
rhand -5.74034 -45.1702
rfingers 7.12502
rthumb 20.0819 -74.1523
lclavicle 5.01931e-014 -1.96797e-014
lhumerus -33.051 0.676674 81.9631
lradius 40.5598
lwrist 8.95056
lhand -21.7642 29.6935
lfingers 7.12502
lthumb 4.63642 59.6227
rfemur -24.1764 4.22128 26.4736
rtibia 77.8811
rfoot -24.6945 -25.656
rtoes -33.3965
lfemur -57.589 -13.0168 1.78681
ltibia 35.5523
lfoot 0.357558 -1.27025
ltoes -3.78798
2158
root -4.66198 14.4912 -15.5003 3.34317 -10.7033 -7.5069
lowerback 18.9345 2.72231 2.06633
upperback 1.3332 4.22251 2.18206
thorax -9.18438 1.97085 0.0837244
lowerneck -1.98689 -1.84039 -4.10078
upperneck 2.60882 -2.44118 3.85436
head 1.26175 -1.20402 1.87228
rclavicle 3.84897e-014 2.52457e-014
rhumerus -24.2405 19.6076 -79.0923
rradius 63.6065
rwrist 10.9898
rhand -6.14123 -45.1461
rfingers 7.12502
rthumb 19.6966 -74.1682
lclavicle 3.84897e-014 2.52457e-014
lhumerus -32.9978 0.65155 82.1609
lradius 40.6019
lwrist 9.1462
lhand -20.4823 29.1158
lfingers 7.12502
lthumb 5.87416 59.0144
rfemur -25.4106 3.47031 26.6245
rtibia 78.0755
rfoot -24.4708 -26.7202
rtoes -32.8895
lfemur -58.4596 -12.4213 -0.723572
ltibia 37.1826
lfoot -0.258326 0.381679
ltoes -4.15125
2159
root -4.6874 14.4872 -15.7576 3.56075 -9.09355 -7.17089
lowerback 19.3074 2.51226 2.12499
upperback 1.39949 3.97147 2.21007
thorax -9.31694 1.84663 0.131897
lowerneck -2.01819 -2.157 -4.30753
upperneck 2.02472 -2.84262 3.801
head 1.10195 -1.40616 1.88361
rclavicle 4.82923e-014 3.15571e-014
rhumerus -23.1973 19.7779 -78.3175
rradius 63.8201
rwrist 10.516
rhand -6.46281 -45.3247
rfingers 7.12502
rthumb 19.3874 -74.3782
lclavicle 4.82923e-014 3.15571e-014
lhumerus -32.8624 0.580464 82.3638
lradius 40.5341
lwrist 9.20338
lhand -19.5556 27.7059
lfingers 7.12502
lthumb 6.76882 57.5777
rfemur -26.8404 2.60616 26.7433
rtibia 78.3492
rfoot -24.4624 -27.4742
rtoes -31.8315
lfemur -59.647 -11.7505 -3.53574
ltibia 39.5953
lfoot -0.475461 1.96873
ltoes -4.29614
2160
root -4.70824 14.4762 -16.0171 3.76794 -7.50993 -6.90422
lowerback 19.7414 2.28844 2.30901
upperback 1.46295 3.73641 2.27182
thorax -9.48035 1.72518 0.141629
lowerneck -1.95986 -2.41997 -4.55301
upperneck 1.36897 -3.17587 3.79397
head 0.904102 -1.57376 1.92045
rclavicle -2.07947e-014 -1.89901e-014
rhumerus -22.1565 19.9616 -77.4917
rradius 64.0087
rwrist 10.086
rhand -6.87785 -45.3519
rfingers 7.12502
rthumb 18.9883 -74.445
lclavicle -2.07947e-014 -1.89901e-014
lhumerus -32.7006 0.452833 82.6129
lradius 40.4952
lwrist 9.24602
lhand -18.5152 26.9664
lfingers 7.12502
lthumb 7.77307 56.8035
rfemur -28.2681 1.7748 26.9001
rtibia 78.6239
rfoot -24.6018 -28.1803
rtoes -30.6547
lfemur -60.8737 -11.0951 -6.41641
ltibia 42.7523
lfoot -0.885057 3.50961
ltoes -4.84586
2161
root -4.72712 14.4599 -16.2755 3.90616 -6.01855 -6.86839
lowerback 20.3197 2.06376 2.6604
upperback 1.49373 3.55869 2.4395
thorax -9.75687 1.62408 0.153455
lowerneck -1.82421 -2.70183 -4.62273
upperneck 0.701796 -3.53992 3.54887
head 0.68269 -1.75752 1.85071
rclavicle -1.99282e-014 -1.48095e-014
rhumerus -21.1061 20.2952 -76.6122
rradius 64.0967
rwrist 9.5767
rhand -7.40221 -45.4492
rfingers 7.12502
rthumb 18.484 -74.591
lclavicle -1.99282e-014 -1.48095e-014
lhumerus -32.5788 0.350587 82.8949
lradius 40.375
lwrist 9.12208
lhand -17.6088 26.253
lfingers 7.12502
lthumb 8.64782 56.0558
rfemur -29.6224 0.985949 27.307
rtibia 78.8858
rfoot -24.8133 -28.8701
rtoes -29.3621
lfemur -62.044 -10.5446 -8.95824
ltibia 46.5679
lfoot -2.05215 5.04228
ltoes -3.88782
2162
root -4.74552 14.4442 -16.5367 4.12151 -4.60451 -6.86367
lowerback 20.8299 1.85563 3.05067
upperback 1.50193 3.41528 2.60209
thorax -10.0186 1.53757 0.133695
lowerneck -2.04788 -3.04538 -4.75147
upperneck 0.547643 -3.98128 3.41126
head 0.691181 -1.9772 1.81935
rclavicle -1.47598e-014 2.5842e-015
rhumerus -19.9541 20.6844 -75.6533
rradius 64.0239
rwrist 9.13089
rhand -8.04573 -45.3113
rfingers 7.12502
rthumb 17.8648 -74.5108
lclavicle -1.47598e-014 2.5842e-015
lhumerus -32.3732 0.113784 83.2256
lradius 40.2217
lwrist 8.95367
lhand -17.4364 26.0669
lfingers 7.12502
lthumb 8.8142 55.8628
rfemur -31.0184 0.313496 27.6824
rtibia 79.1219
rfoot -24.9966 -29.3622
rtoes -28.0992
lfemur -63.3455 -10.3372 -11.1213
ltibia 50.956
lfoot -2.77132 5.88994
ltoes -4.26198
